<svg xmlns="http://www.w3.org/2000/svg" viewBox="0 0 729 382" width="729" height="382" role="img" aria-label="HACKLUB logo">
  <defs>
    <linearGradient id="ribbonA" x1="98" y1="50" x2="630" y2="205" gradientUnits="userSpaceOnUse">
      <stop offset="0" stop-color="#f6f6f6"/>
      <stop offset="0.28" stop-color="#ffffff"/>
      <stop offset="0.5" stop-color="#d7d7d7"/>
      <stop offset="0.72" stop-color="#ffffff"/>
      <stop offset="1" stop-color="#ececec"/>
    </linearGradient>
    <linearGradient id="ribbonB" x1="630" y1="48" x2="102" y2="206" gradientUnits="userSpaceOnUse">
      <stop offset="0" stop-color="#f8f8f8"/>
      <stop offset="0.26" stop-color="#ffffff"/>
      <stop offset="0.5" stop-color="#cfcfcf"/>
      <stop offset="0.74" stop-color="#ffffff"/>
      <stop offset="1" stop-color="#eeeeee"/>
    </linearGradient>
    <linearGradient id="word" x1="0" y1="292" x2="729" y2="366" gradientUnits="userSpaceOnUse">
      <stop offset="0" stop-color="#e7e7e7"/>
      <stop offset="0.5" stop-color="#ffffff"/>
      <stop offset="1" stop-color="#e4e4e4"/>
    </linearGradient>
    <filter id="softShadow" x="-12%" y="-20%" width="124%" height="140%">
      <feDropShadow dx="0" dy="8" stdDeviation="7" flood-color="#000000" flood-opacity="0.25"/>
    </filter>
  </defs>

  <g filter="url(#softShadow)">
    <path d="M118 122 C190 27 276 29 365 128 C454 227 540 225 611 122" fill="none" stroke="#ffffff" stroke-width="72" stroke-linecap="round"/>
    <path d="M611 122 C540 27 454 29 365 128 C276 227 190 225 118 122" fill="none" stroke="#ffffff" stroke-width="72" stroke-linecap="round"/>
    <path d="M118 122 C190 27 276 29 365 128 C454 227 540 225 611 122" fill="none" stroke="url(#ribbonA)" stroke-width="58" stroke-linecap="round"/>
    <path d="M611 122 C540 27 454 29 365 128 C276 227 190 225 118 122" fill="none" stroke="url(#ribbonB)" stroke-width="58" stroke-linecap="round"/>
    <path d="M154 118 C212 58 276 62 340 130" fill="none" stroke="#ffffff" stroke-width="16" stroke-linecap="round" opacity="0.72"/>
    <path d="M390 128 C454 62 518 58 576 118" fill="none" stroke="#ffffff" stroke-width="16" stroke-linecap="round" opacity="0.72"/>
    <path d="M520 180 C552 162 581 139 611 122" fill="none" stroke="#b9b9b9" stroke-width="18" stroke-linecap="round" opacity="0.38"/>
    <path d="M118 122 C148 139 177 162 209 180" fill="none" stroke="#b9b9b9" stroke-width="18" stroke-linecap="round" opacity="0.38"/>
  </g>

  <g fill="#f9f9f9" stroke="#bdbdbd" stroke-width="2" paint-order="stroke" font-family="Consolas, 'Courier New', monospace" font-weight="700">
    <text x="194" y="136" text-anchor="middle" font-size="35">&lt;/&gt;</text>
    <text x="536" y="119" text-anchor="middle" font-size="25">
      <tspan x="536" dy="0">01</tspan>
      <tspan x="536" dy="28">10</tspan>
    </text>
  </g>

  <text x="365" y="352" text-anchor="middle" textLength="710" lengthAdjust="spacingAndGlyphs"
        fill="url(#word)" stroke="#bdbdbd" stroke-width="1.25" paint-order="stroke"
        font-family="'Arial Narrow', 'Segoe UI', Arial, sans-serif" font-size="76" font-weight="300">HACKLUB</text>
</svg>
